<svg xmlns="http://www.w3.org/2000/svg" viewBox="0 -256 1792 1536"><path transform="translate(0-256)" d="m478 0c-149.33 0-266.33 41.33-351 124-84.67 82.67-127 197.33-127 344 0 44.667 7.833 90.67 23.5 138 15.667 47.33 33.5 87.67 53.5 121 20 33.33 42.667 65.833 68 97.5 25.333 31.667 43.833 53.5 55.5 65.5 11.667 12 20.833 20.667 27.5 26l624 602c7.994 7.994 17.18 13.31 27.541 15.978 5.192 1.337 10.673 2.02 16.459 2.02 17.333 0 32-6 44-18l623-600c152.67-152.67 229-302.67 229-450 0-146.67-42.33-261.33-127-344-84.67-82.67-201.67-124-351-124-41.33 0-83.5 7.167-126.5 21.5-43 14.333-83 33.667-120 58-37 24.333-68.833 47.17-95.5 68.5-26.667 21.333-52 44-76 68-24-24-49.33-46.667-76-68-26.667-21.333-58.5-44.17-95.5-68.5-37-24.333-77-43.667-120-58-43-14.333-85.17-21.5-126.5-21.5m836 125.98c34.667 0 67.33 2.667 98 8 30.667 5.333 62 15.667 94 31 32 15.333 59.17 35.17 81.5 59.5 22.333 24.333 40.667 57.17 55 98.5 14.333 41.33 21.5 89 21.5 143 0 112-62.67 230.67-188 356l-580 559v-1010c20.667 0 37-7.333 49-22 16-18.667 36-39.17 60-61.5 24-22.333 52.833-46.33 86.5-72 33.667-25.667 70.5-47 110.5-64 40-17 77.33-25.5 112-25.5"/></svg>